<svg width="516" height="532" viewBox="0 0 516 532" fill="none" xmlns="http://www.w3.org/2000/svg">
<path fill-rule="evenodd" clip-rule="evenodd" d="M82.8422 372.404L74.3511 300.861H149.053L140.558 372.396L111.661 380.352L82.8422 372.404ZM100.011 333.242L99.2062 324.256H133.009L133.797 315.483H89.5571L91.9393 342.019H122.555L121.53 353.396L111.677 356.043H111.669L101.833 353.405L101.202 346.409H92.3294L93.5662 360.186L111.661 365.174L129.784 360.186L131.992 335.6L132.208 333.246H100.011V333.242Z" fill="white"/>
<path d="M75.0533 191.772C75.0533 186.823 68.8561 182.132 59.3534 179.225C61.5478 169.542 60.5735 161.835 56.2781 159.367C55.2373 158.784 54.0594 158.49 52.8667 158.517V161.91C53.5671 161.91 54.1305 162.05 54.6036 162.308C56.6734 163.497 57.573 168.017 56.8727 173.834C56.7046 175.266 56.4307 176.772 56.0945 178.31C52.9123 177.543 49.6826 176.989 46.4268 176.651C44.4872 173.975 42.3711 171.432 40.0927 169.038C45.0572 164.425 49.7168 161.897 52.8854 161.897V158.501C48.6959 158.501 43.2146 161.486 37.6711 166.663C32.1306 161.521 26.6463 158.564 22.4598 158.564V161.956C25.6129 161.956 30.288 164.471 35.2526 169.053C33.1205 171.294 30.9883 173.834 28.962 176.651C25.6995 176.985 22.464 177.545 19.2788 178.326C18.9421 176.868 18.6772 175.395 18.485 173.912C17.7691 168.091 18.6531 163.572 20.7105 162.37C21.165 162.097 21.7595 161.972 22.4598 161.972V158.579C21.1837 158.579 20.0227 158.853 19.0204 159.429C14.7406 161.897 13.7819 169.585 15.9887 179.241C6.51712 182.167 0.351074 186.839 0.351074 191.772C0.351074 196.721 6.54825 201.412 16.051 204.316C13.8566 214.002 14.8309 221.709 19.1262 224.174C20.116 224.753 21.2739 225.027 22.5501 225.027C26.7396 225.027 32.2209 222.042 37.7644 216.866C43.3049 222.011 48.7861 224.965 52.9757 224.965C54.1775 224.99 55.3644 224.696 56.4151 224.112C60.6949 221.647 61.6536 213.959 59.4468 204.303C68.8873 201.396 75.0533 196.705 75.0533 191.772ZM55.2261 181.616C54.6346 183.651 53.9491 185.657 53.1718 187.629C51.8992 185.154 50.502 182.745 48.9853 180.411C51.1486 180.732 53.234 181.127 55.2292 181.616H55.2261ZM48.2539 197.832C47.1138 199.823 45.8895 201.763 44.5841 203.65C40.0156 204.052 35.4208 204.058 30.8514 203.665C28.2304 199.921 25.9383 195.958 24.0006 191.819C25.9353 187.67 28.2177 183.692 30.8234 179.929C35.3907 179.525 39.9845 179.519 44.553 179.91C45.8167 181.721 47.0524 183.657 48.2383 185.699C49.3962 187.691 50.4483 189.715 51.4069 191.756C50.4376 193.823 49.3858 195.85 48.2539 197.832V197.832ZM53.1718 195.853C53.9935 197.891 54.6969 199.933 55.2728 201.913C53.2807 202.401 51.1766 202.812 49.0009 203.13C50.5113 200.775 51.9033 198.346 53.1718 195.853V195.853ZM37.7333 212.1C36.3171 210.637 34.9009 209.01 33.5002 207.226C34.8697 207.288 36.2704 207.335 37.6866 207.335C39.1184 207.335 40.5346 207.304 41.9198 207.226C40.5502 209.01 39.134 210.637 37.7333 212.1ZM26.4035 203.13C24.3048 202.826 22.2213 202.425 20.1596 201.928C20.723 199.964 21.4233 197.938 22.2139 195.915C22.8396 197.129 23.4963 198.349 24.2122 199.569C24.9281 200.786 25.6565 201.975 26.4035 203.13ZM37.6555 171.444C39.0717 172.907 40.488 174.534 41.8886 176.318C40.5191 176.256 39.1184 176.209 37.7022 176.209C36.2704 176.209 34.8542 176.24 33.4691 176.318C34.8386 174.534 36.2548 172.907 37.6555 171.444ZM26.3879 180.414C24.8779 182.764 23.4859 185.187 22.217 187.676C21.4178 185.691 20.7166 183.669 20.116 181.616C22.1081 181.142 24.2122 180.732 26.3879 180.414ZM12.6085 199.476C7.21745 197.179 3.73135 194.162 3.73135 191.772C3.73135 189.382 7.21745 186.35 12.6085 184.068C13.9158 183.505 15.3475 183.001 16.826 182.531C17.6944 185.513 18.8368 188.619 20.2499 191.803C18.9157 194.798 17.7874 197.88 16.8727 201.029C15.4268 200.581 14.0036 200.063 12.6085 199.476V199.476ZM20.8008 221.233C18.7309 220.05 17.8314 215.524 18.5317 209.71C18.6998 208.278 18.9737 206.768 19.3099 205.231C22.2917 205.962 25.5506 206.526 28.9776 206.893C30.9173 209.569 33.0334 212.112 35.3117 214.506C30.3471 219.119 25.6876 221.647 22.519 221.647C21.9212 221.653 21.331 221.512 20.8008 221.236V221.233ZM56.9193 209.632C57.6352 215.449 56.7513 219.972 54.6938 221.174C54.2394 221.447 53.6449 221.569 52.9446 221.569C49.7915 221.569 45.1164 219.057 40.1518 214.472C42.4207 212.088 44.5225 209.55 46.4423 206.877C49.7049 206.543 52.9404 205.984 56.1256 205.203C56.4774 206.74 56.7481 208.216 56.9193 209.632V209.632ZM62.7803 199.476C61.4731 200.039 60.0413 200.543 58.5628 201.013C57.632 197.849 56.4881 194.751 55.1389 191.741C56.5396 188.575 57.6632 185.485 58.5161 182.515C59.9667 182.964 61.3949 183.483 62.7959 184.068C68.1869 186.365 71.673 189.382 71.673 191.772C71.6575 194.162 68.1714 197.194 62.7803 199.476V199.476Z" fill="white"/>
<path d="M37.6863 198.733C39.5322 198.733 41.3024 197.999 42.6076 196.694C43.9128 195.389 44.6461 193.619 44.6461 191.773C44.6461 189.927 43.9128 188.157 42.6076 186.851C41.3024 185.546 39.5322 184.813 37.6863 184.813C35.8405 184.813 34.0702 185.546 32.765 186.851C31.4598 188.157 30.7266 189.927 30.7266 191.773C30.7266 193.619 31.4598 195.389 32.765 196.694C34.0702 197.999 35.8405 198.733 37.6863 198.733V198.733Z" fill="white"/>
<path d="M173.59 219.106C158.043 223.433 182.998 232.388 202.771 224.137C200.852 223.391 199.001 222.482 197.237 221.42C190.372 222.983 183.281 223.29 176.307 222.326C169.716 221.571 173.59 219.106 173.59 219.106V219.106ZM200.406 210.653C191.552 212.579 182.439 213.021 173.439 211.962C166.848 211.257 171.175 208.087 171.175 208.087C154.069 213.722 180.684 220.162 204.582 213.119C203.029 212.608 201.604 211.767 200.406 210.653V210.653ZM209.563 161.699C209.563 161.699 174.999 170.303 191.501 189.321C192.145 190.093 192.625 190.988 192.911 191.951C193.197 192.915 193.284 193.926 193.167 194.925C193.049 195.923 192.729 196.887 192.226 197.757C191.724 198.627 191.049 199.386 190.243 199.987C190.243 199.987 202.62 193.597 196.935 185.598C191.25 177.598 187.577 174.428 209.563 161.699Z" fill="white"/>
<path d="M217.664 227.307C217.664 227.307 220.481 229.621 214.494 231.432C203.073 234.904 167.049 235.96 157.037 231.432C153.414 229.873 160.156 227.709 162.068 227.256C163.202 226.964 164.37 226.828 165.54 226.854C161.515 224.036 139.629 232.388 154.421 234.803C194.922 241.696 228.078 231.986 217.664 227.307V227.307ZM203.777 202.754C205.257 201.818 206.804 200.994 208.406 200.289C208.406 200.289 200.809 201.647 193.312 202.301C185.251 203.079 177.138 203.163 169.062 202.553C157.087 200.993 175.451 196.415 175.451 196.415C169.925 196.372 164.47 197.666 159.553 200.188C149.188 205.37 185.162 207.634 203.777 202.754V202.754ZM208.356 215.03C208.246 215.201 208.11 215.354 207.953 215.483C233.11 208.842 223.953 192.088 211.878 196.314C211.212 196.559 210.634 196.997 210.217 197.572C210.217 197.572 210.922 197.32 212.381 196.968C218.519 195.71 227.072 205.169 208.356 215.03V215.03ZM186.822 196.415C183.099 188.012 170.42 180.617 186.822 167.686C207.4 151.536 196.885 141.071 196.885 141.071C201.111 157.724 181.791 162.756 175.049 173.12C170.37 180.214 177.414 187.811 186.822 196.415Z" fill="white"/>
<path d="M209.01 238.275C193.809 240.878 178.298 241.115 163.024 238.98C163.024 238.98 165.339 240.891 177.313 241.646C195.476 242.803 223.349 241.042 224.054 232.439C224.054 232.439 222.745 235.659 209.01 238.275V238.275Z" fill="white"/>
<path fill-rule="evenodd" clip-rule="evenodd" d="M261.702 304.181C241.066 304.181 224.351 320.896 224.351 341.532C224.351 358.06 235.043 372.02 249.89 376.969C251.757 377.296 252.458 376.175 252.458 375.195C252.458 374.308 252.411 371.366 252.411 368.238C243.027 369.966 240.599 365.951 239.852 363.85C239.432 362.776 237.611 359.461 236.023 358.574C234.716 357.873 232.848 356.146 235.977 356.099C238.918 356.053 241.019 358.807 241.719 359.928C245.081 365.577 250.45 363.99 252.598 363.009C252.925 360.581 253.905 358.947 254.979 358.013C246.668 357.08 237.984 353.858 237.984 339.571C237.984 335.509 239.432 332.148 241.813 329.533C241.439 328.599 240.132 324.771 242.186 319.635C242.186 319.635 245.314 318.655 252.458 323.464C255.446 322.623 258.621 322.203 261.796 322.203C264.97 322.203 268.145 322.623 271.133 323.464C278.277 318.608 281.405 319.635 281.405 319.635C283.459 324.771 282.152 328.599 281.778 329.533C284.16 332.148 285.607 335.463 285.607 339.571C285.607 353.905 276.876 357.08 268.565 358.013C269.919 359.181 271.087 361.422 271.087 364.923C271.087 369.919 271.04 373.934 271.04 375.195C271.04 376.175 271.74 377.343 273.608 376.969C281.023 374.466 287.466 369.7 292.03 363.343C296.595 356.986 299.051 349.358 299.053 341.532C299.053 320.896 282.339 304.181 261.702 304.181Z" fill="white"/>
<path d="M224.061 29.4031C224.061 29.4031 222.243 28.0741 224.425 26.3061L229.514 21.7057C229.514 21.7057 230.968 20.1587 232.509 21.5065L279.45 57.4321V74.6572C279.45 74.6572 279.428 77.3652 275.995 77.0664L224.058 29.4L224.061 29.4031Z" fill="white"/>
<path d="M236.163 40.5057L224.061 51.6239C224.061 51.6239 222.816 52.5577 224.061 54.2292L229.679 59.3961C229.679 59.3961 231.015 60.8434 232.985 59.1938L245.812 49.3642L236.163 40.5057ZM257.403 40.596L279.596 23.4704L279.45 6.33558C279.45 6.33558 278.501 2.59423 275.341 4.54272L245.812 31.7064L257.403 40.596V40.596Z" fill="white"/>
<path d="M275.992 77.0887C277.28 78.4209 278.843 77.9851 278.843 77.9851L296.137 69.3726C298.35 67.8474 298.038 65.9549 298.038 65.9549V14.5192C298.038 12.2595 295.751 11.4782 295.751 11.4782L280.76 4.17295C277.486 2.12797 275.341 4.54335 275.341 4.54335C275.341 4.54335 278.099 2.53572 279.45 6.33621V74.3465C279.45 74.8134 279.35 75.271 279.154 75.6849C278.759 76.4911 277.903 77.2412 275.849 76.93L275.992 77.0887V77.0887Z" fill="white"/>
<path d="M371.761 495.961C370.233 501.164 367.398 505.828 363.252 509.947L363.069 510.13C357.891 515.275 351.86 518.359 344.984 519.397C343.206 519.665 341.41 519.798 339.611 519.797C330.375 519.797 322.476 516.516 315.908 509.947C311.788 505.826 308.973 501.164 307.456 495.961H371.761ZM373.051 488.182C372.99 489.422 372.862 490.633 372.676 491.821L372.612 492.216H306.611C306.41 491.017 306.272 489.808 306.198 488.594L306.176 488.182H373.052H373.051ZM372.611 480.404C372.813 481.603 372.952 482.811 373.027 484.025L373.049 484.437H306.175C306.235 483.219 306.36 482.004 306.547 480.799L306.611 480.404H372.611V480.404ZM371.762 476.657C370.235 471.441 367.4 466.756 363.251 462.606C358.046 457.401 351.972 454.278 345.038 453.227C343.242 452.956 341.428 452.82 339.611 452.822C330.375 452.822 322.476 456.084 315.908 462.607C311.786 466.756 308.97 471.44 307.454 476.657" fill="white"/>
<path d="M304.186 486.31C304.186 468.644 317.454 453.966 334.714 451.384C334.286 451.369 333.856 451.352 333.424 451.352C314.054 451.352 298.351 467.004 298.351 486.31C298.351 505.618 314.054 521.269 333.424 521.269C333.857 521.269 334.288 521.253 334.717 521.237C317.454 518.655 304.187 503.977 304.187 486.31H304.186Z" fill="white"/>
<path d="M362.37 484.436C362.261 483.074 362.029 481.724 361.678 480.403H317.547C317.196 481.724 316.964 483.074 316.854 484.436H362.37H362.37Z" fill="black"/>
<path d="M362.37 488.182H316.855C316.964 489.545 317.195 490.895 317.547 492.215H361.678C362.029 490.894 362.261 489.545 362.37 488.182H362.37Z" fill="black"/>
<path d="M339.612 509.151C348.777 509.151 356.677 503.752 360.315 495.961H318.91C322.547 503.752 330.448 509.151 339.612 509.151V509.151Z" fill="black"/>
<path d="M372.603 492.215C372.381 493.48 372.086 494.73 371.718 495.961H307.456C307.09 494.74 306.835 493.489 306.61 492.215H372.603ZM372.993 484.436C373.03 485.081 373.053 485.729 373.053 486.382C373.053 486.986 373.036 487.586 373.004 488.182H306.163C306.131 487.583 306.115 486.982 306.114 486.382C306.114 485.729 306.138 485.08 306.175 484.436H372.993ZM371.499 476.657C371.872 477.887 372.172 479.138 372.4 480.403H306.611C306.841 479.128 307.082 477.877 307.454 476.657H371.499Z" fill="white"/>
<path d="M511.803 164.153H505.091V161.235C505.091 160.914 504.828 160.651 504.507 160.651H467.156C466.835 160.651 466.573 160.914 466.573 161.235V164.153H459.861C459.01 164.153 458.193 164.491 457.592 165.093C456.99 165.695 456.651 166.512 456.651 167.363V178.16C456.651 184.12 461.028 189.073 466.733 189.978C467.857 198.455 474.67 205.137 483.206 206.064V213.738H468.907C467.616 213.738 466.573 214.781 466.573 216.073V218.429C466.573 218.75 466.835 219.012 467.156 219.012H504.507C504.828 219.012 505.091 218.75 505.091 218.429V216.073C505.091 214.781 504.048 213.738 502.757 213.738H488.458V206.064C496.993 205.137 503.807 198.455 504.931 189.978C510.635 189.073 515.012 184.12 515.012 178.16V167.363C515.012 166.512 514.674 165.695 514.072 165.093C513.47 164.491 512.654 164.153 511.803 164.153ZM466.573 184.55C463.866 183.682 461.904 181.143 461.904 178.16V169.406H466.573V184.55ZM509.76 178.16C509.76 181.151 507.798 183.689 505.091 184.55V169.406H509.76V178.16Z" fill="white"/>
<path d="M490.768 169.517C490.806 169.395 490.82 169.266 490.807 169.138C490.795 169.01 490.757 168.886 490.696 168.772C490.635 168.658 490.551 168.558 490.451 168.476C490.35 168.394 490.234 168.332 490.108 168.295C489.983 168.257 489.852 168.244 489.722 168.256C489.592 168.268 489.465 168.305 489.35 168.365C489.234 168.425 489.131 168.507 489.048 168.606C488.965 168.705 488.902 168.819 488.864 168.942L480.896 194.376C480.819 194.624 480.844 194.892 480.968 195.122C481.092 195.351 481.303 195.523 481.556 195.599C481.808 195.675 482.081 195.65 482.315 195.529C482.548 195.407 482.723 195.199 482.8 194.951L490.768 169.517V169.517ZM479.566 174.407C479.659 174.498 479.732 174.605 479.782 174.724C479.833 174.843 479.858 174.971 479.858 175.099C479.858 175.228 479.833 175.355 479.782 175.474C479.732 175.593 479.659 175.701 479.566 175.792L473.298 181.947L479.566 188.102C479.753 188.286 479.858 188.535 479.858 188.794C479.858 189.054 479.753 189.303 479.566 189.487C479.379 189.671 479.125 189.774 478.861 189.774C478.596 189.774 478.343 189.671 478.156 189.487L471.184 182.639C471.091 182.549 471.018 182.441 470.968 182.322C470.917 182.203 470.892 182.076 470.892 181.947C470.892 181.818 470.917 181.691 470.968 181.572C471.018 181.453 471.091 181.345 471.184 181.254L478.156 174.407C478.248 174.316 478.358 174.243 478.479 174.194C478.6 174.145 478.73 174.119 478.861 174.119C478.992 174.119 479.121 174.145 479.242 174.194C479.363 174.243 479.473 174.316 479.566 174.407V174.407ZM492.098 174.407C492.006 174.498 491.932 174.605 491.882 174.724C491.832 174.843 491.806 174.971 491.806 175.099C491.806 175.228 491.832 175.355 491.882 175.474C491.932 175.593 492.006 175.701 492.098 175.792L498.367 181.947L492.098 188.102C492.006 188.193 491.932 188.301 491.882 188.42C491.832 188.538 491.806 188.666 491.806 188.794C491.806 188.923 491.832 189.05 491.882 189.169C491.932 189.288 492.006 189.396 492.098 189.487C492.191 189.578 492.301 189.65 492.422 189.699C492.543 189.749 492.672 189.774 492.803 189.774C492.934 189.774 493.064 189.749 493.185 189.699C493.306 189.65 493.416 189.578 493.509 189.487L500.48 182.639C500.573 182.549 500.646 182.441 500.696 182.322C500.747 182.203 500.772 182.076 500.772 181.947C500.772 181.818 500.747 181.691 500.696 181.572C500.646 181.453 500.573 181.345 500.48 181.254L493.509 174.407C493.416 174.316 493.306 174.243 493.185 174.194C493.064 174.145 492.934 174.119 492.803 174.119C492.672 174.119 492.543 174.145 492.422 174.194C492.301 174.243 492.191 174.316 492.098 174.407V174.407Z" fill="black"/>
<path d="M220.819 465.971L189.937 448.141C188.158 447.114 185.246 447.114 183.467 448.141L152.586 465.971C150.807 466.998 149.351 469.519 149.351 471.574V507.233C149.489 509.625 150.712 511.607 152.586 512.835L183.468 530.665C185.246 531.692 188.158 531.692 189.937 530.665L220.819 512.835C222.83 511.498 223.974 509.485 224.053 507.233V471.574C223.981 469.412 222.687 467.232 220.819 465.971H220.819ZM161.801 489.403C161.655 465.089 194.222 454.353 208.266 476.945L197.49 483.181C190.984 472.421 174.832 476.269 174.252 489.403C174.426 501.509 190.302 507.132 197.49 495.625L208.267 501.861C195.89 523.346 162.425 515.616 161.802 489.403H161.801ZM211.603 490.786H208.836V493.553H206.07V490.786H203.303V488.02H206.07V485.253H208.836V488.02H211.603V490.786H211.603ZM221.978 490.786H219.211V493.553H216.445V490.786H213.678V488.02H216.445V485.253H219.211V488.02H221.978V490.786H221.978Z" fill="white"/>
<path fill-rule="evenodd" clip-rule="evenodd" d="M335.665 231.888L306.846 223.887L298.351 151.861H373.053L364.562 223.878L335.665 231.888ZM315.147 184.465L315.939 193.296H346.555L345.53 204.751L335.677 207.415H335.669L325.833 204.759L325.202 197.716H316.334L317.57 211.586L335.665 216.607L353.788 211.586L355.996 186.834L356.212 184.465L357.806 166.582H313.557L314.362 175.417H348.128L347.323 184.465H315.147V184.465Z" fill="white"/>
<path d="M93.0268 21.3588C94.5003 21.3588 95.6948 20.1643 95.6948 18.6909C95.6948 17.2174 94.5003 16.0229 93.0268 16.0229C91.5534 16.0229 90.3589 17.2174 90.3589 18.6909C90.3589 20.1643 91.5534 21.3588 93.0268 21.3588Z" fill="white"/>
<path d="M141.049 59.0833V48.038C141.049 46.6229 140.487 45.2657 139.487 44.265C138.486 43.2643 137.129 42.7022 135.714 42.7022H114.37V32.0304H138.382C139.797 32.0304 141.154 31.4683 142.155 30.4676C143.155 29.4669 143.717 28.1097 143.717 26.6946V10.6869C143.717 9.27178 143.155 7.91458 142.155 6.91391C141.154 5.91324 139.797 5.35107 138.382 5.35107H85.0228C83.6077 5.35107 82.2505 5.91324 81.2498 6.91391C80.2491 7.91458 79.687 9.27178 79.687 10.6869V26.6946C79.687 28.1097 80.2491 29.4669 81.2498 30.4676C82.2505 31.4683 83.6077 32.0304 85.0228 32.0304H109.034V42.7022H87.6908C86.2756 42.7022 84.9184 43.2643 83.9177 44.265C82.9171 45.2657 82.3549 46.6229 82.3549 48.038V59.0833C79.84 59.7326 77.6482 61.2769 76.1904 63.4267C74.7326 65.5765 74.1089 68.1841 74.4362 70.7608C74.7634 73.3376 76.0193 75.7065 77.9682 77.4235C79.9171 79.1406 82.4254 80.0879 85.0228 80.0879C87.6203 80.0879 90.1285 79.1406 92.0775 77.4235C94.0264 75.7065 95.2822 73.3376 95.6095 70.7608C95.9368 68.1841 95.3131 65.5765 93.8553 63.4267C92.3975 61.2769 90.2057 59.7326 87.6908 59.0833V48.038H109.034V58.7098H101.03V80.0533H122.374V58.7098H114.37V48.038H135.714V59.0833C133.199 59.7326 131.007 61.2769 129.549 63.4267C128.091 65.5765 127.468 68.1841 127.795 70.7608C128.122 73.3376 129.378 75.7065 131.327 77.4235C133.276 79.1406 135.784 80.0879 138.382 80.0879C140.979 80.0879 143.487 79.1406 145.436 77.4235C147.385 75.7065 148.641 73.3376 148.968 70.7608C149.296 68.1841 148.672 65.5765 147.214 63.4267C145.756 61.2769 143.564 59.7326 141.049 59.0833V59.0833ZM90.3587 69.3815C90.3587 70.4369 90.0458 71.4685 89.4595 72.346C88.8731 73.2235 88.0398 73.9074 87.0648 74.3112C86.0898 74.7151 85.0169 74.8208 83.9819 74.6149C82.9468 74.409 81.996 73.9008 81.2498 73.1546C80.5036 72.4083 79.9954 71.4576 79.7895 70.4225C79.5836 69.3874 79.6893 68.3146 80.0931 67.3396C80.497 66.3646 81.1809 65.5312 82.0584 64.9449C82.9359 64.3586 83.9675 64.0457 85.0228 64.0457C86.438 64.0457 87.7952 64.6078 88.7959 65.6085C89.7965 66.6092 90.3587 67.9664 90.3587 69.3815ZM117.038 64.0457V74.7174H106.366V64.0457H117.038ZM85.0228 26.6946V10.6869H138.382V26.6946H85.0228ZM138.382 74.7174C137.326 74.7174 136.295 74.4045 135.417 73.8181C134.54 73.2318 133.856 72.3985 133.452 71.4235C133.048 70.4485 132.942 69.3756 133.148 68.3405C133.354 67.3055 133.862 66.3547 134.609 65.6085C135.355 64.8623 136.306 64.3541 137.341 64.1482C138.376 63.9423 139.448 64.048 140.423 64.4518C141.398 64.8557 142.232 65.5396 142.818 66.4171C143.404 67.2945 143.717 68.3262 143.717 69.3815C143.717 70.7967 143.155 72.1539 142.155 73.1546C141.154 74.1552 139.797 74.7174 138.382 74.7174Z" fill="white"/>
<path d="M410.685 85.1947C409.565 85.1947 408.428 84.8917 407.442 84.3195L397.126 78.1759C395.588 77.3006 396.34 76.9976 396.842 76.8293C398.898 76.1056 399.316 75.9541 401.507 74.6917C401.741 74.557 402.042 74.6075 402.276 74.759L410.201 79.4887C410.485 79.6571 410.886 79.6571 411.154 79.4887L442.034 61.5461C442.319 61.3778 442.502 61.0411 442.502 60.7045V24.8192C442.502 24.4657 442.319 24.1459 442.018 23.9608L411.154 6.03498C410.869 5.86666 410.485 5.86666 410.201 6.03498L379.353 23.9776C379.052 24.1459 378.868 24.4826 378.868 24.836V60.7045C378.868 61.0411 379.052 61.3778 379.353 61.5293L387.813 66.4441C392.411 68.7501 395.22 66.0402 395.22 63.2966V27.8826C395.22 27.3776 395.621 26.9905 396.123 26.9905H400.035C400.52 26.9905 400.938 27.3776 400.938 27.8826V63.3134C400.938 69.4739 397.594 73.0085 391.793 73.0085C390.004 73.0085 388.599 73.0085 384.687 71.056L376.595 66.36C374.588 65.1986 373.351 63.0273 373.351 60.6877V24.8192C373.351 22.4964 374.588 20.3083 376.595 19.1469L407.442 1.20427C409.398 0.0933698 411.99 0.0933698 413.929 1.20427L444.81 19.1637C446.816 20.3251 448.053 22.4964 448.053 24.836V60.7045C448.053 63.0273 446.816 65.1986 444.81 66.3768L413.929 84.3195C412.943 84.8917 411.822 85.1947 410.685 85.1947ZM435.614 49.8312C435.614 43.1153 431.1 41.3312 421.62 40.0688C412.023 38.7896 411.053 38.1331 411.053 35.8777C411.053 34.0093 411.873 31.5183 418.978 31.5183C425.315 31.5183 427.656 32.8985 428.625 37.2074C428.709 37.6113 429.077 37.9143 429.495 37.9143H433.507C433.758 37.9143 433.992 37.8133 434.159 37.6282C434.327 37.443 434.41 37.1906 434.394 36.9381C433.775 29.5153 428.876 26.0648 418.978 26.0648C410.167 26.0648 404.917 29.8014 404.917 36.0797C404.917 42.8797 410.15 44.7648 418.594 45.6064C428.709 46.5995 429.495 48.0975 429.495 50.1005C429.495 53.5679 426.719 55.049 420.216 55.049C412.04 55.049 410.251 52.9787 409.649 48.8886C409.582 48.451 409.214 48.1312 408.763 48.1312H404.767C404.265 48.1312 403.881 48.5352 403.881 49.0233C403.881 54.258 406.706 60.5025 420.232 60.5025C429.996 60.4857 435.614 56.5976 435.614 49.8312Z" fill="white"/>
<path d="M366 323V353.016H390.989V358H411V353.016H456V323H366ZM390.989 347.988H386.008V332.981H380.999V347.988H371.009V327.998H390.989V347.988ZM405.991 347.988V353.016H396.001V327.998H416.012V348.002H405.991V347.988ZM451.005 347.988H446.01V332.981H441.001V347.988H435.992V332.981H431.011V347.988H420.99V327.998H451.005V347.988ZM405.991 332.995H411V343.004H405.991V332.995Z" fill="white"/>
</svg>
